<svg xmlns="http://www.w3.org/2000/svg" viewBox="0 0 780.19 233.73"><defs><style>.cls-1{fill:none;stroke:#556680;stroke-miterlimit:10;stroke-width:5px;}.cls-2{fill:#556680;}.cls-3{fill:#000100;}</style></defs><g id="Слой_2" data-name="Слой 2"><g id="Слой_1-2" data-name="Слой 1"><rect class="cls-1" x="682.54" y="83.81" width="95.15" height="95.15" rx="16.83"/><path class="cls-2" d="M726.85,162V111.35h-7.48V100.68h18.91V162Z"/><path class="cls-3" d="M189.56,38a8.5,8.5,0,0,1-4.32-.91L183,47.56h-2.12c-1.49,0-3-1-2.45-3.85l4.62-22a30.52,30.52,0,0,1,7.26-1.26h3c5.23,0,8.33,3,7.2,8.36A11.22,11.22,0,0,1,189.56,38Zm2.19-13H190a15,15,0,0,0-2.31.35L186.11,33a14,14,0,0,0,3.71.47,4.89,4.89,0,0,0,5.11-4.16C195.58,26.23,194.58,25,191.75,25Z"/><path class="cls-3" d="M227.37,24.78c-2.45,4.95-7,10.92-9.09,13.55-7,8.72-8.52,9.54-12.14,9.54a2.83,2.83,0,0,1-2.92-3.49l.2-1,2.62-.11c1.94-.08,3.55-1.77,4.87-3.18-2.46-5-5.12-13.2-5.33-19.48h3a2.69,2.69,0,0,1,2.9,2.63,46.94,46.94,0,0,0,3.2,12.25,78.6,78.6,0,0,0,9.1-14.88h2.59c1.45,0,2.18.62,1.89,2A9.24,9.24,0,0,1,227.37,24.78Z"/><path class="cls-3" d="M248.4,47.87c-2.48,0-4-1.29-5.86-5.22l-2.33-4.95c-4.72,4.48-6.56,7.26-7.81,9.86h-2.63A1.63,1.63,0,0,1,228,45.48a8.32,8.32,0,0,1,1.2-2.95,29.46,29.46,0,0,1,5.83-6.4l3.13-2.75-2.25-4.44c-2-4-3-6.48-3-8.28h3.69c1.22,0,2.61.47,4.5,4.55l2.24,4.87c5.57-5.18,7.07-7.11,8.16-9.46h2c1.69,0,2.15,1.14,1.82,2.71-.4,1.92-4.15,5.77-9.94,11.07l2.47,5.22a21.08,21.08,0,0,0,4.75,6.56A5.32,5.32,0,0,1,248.4,47.87Z"/><path class="cls-3" d="M277.09,47.56c-2.24,0-3.15-1.3-3.07-2.6a40.69,40.69,0,0,0,.15-4.27H263.45c-1,2.27-2,4.59-2.86,6.87h-2.08c-1.77,0-2.28-.94-1.93-2.6.82-3.88,9.17-19.71,14.26-24.3H273a3.81,3.81,0,0,1,3.84,2.47c1.52,4.36,3.13,15.94,2.41,24.43ZM272,25.6a60.2,60.2,0,0,0-6.43,10.8h8.32A40.69,40.69,0,0,0,272,25.6Z"/><path class="cls-3" d="M305,25.37h-4.95l-4.67,22.19h-2.16c-1.88,0-3-1.22-2.5-3.62l3.91-18.57h-7.74l.37-1.77a4,4,0,0,1,3.88-2.94h18.07l-.36,1.69A4.48,4.48,0,0,1,305,25.37Z"/><path class="cls-3" d="M329.08,47.56c-1.57,0-2.88-1.26-2.39-3.62l3.5-16.61a22.07,22.07,0,0,0-3,3.66l-7.31,10.13c-3.72,5.14-6.23,6.44-8.94,6.44h-2.2l5.66-26.9H317a2.16,2.16,0,0,1,2.08,2.82L315.63,40A47.05,47.05,0,0,0,319,35.46l6.56-9.34c2.41-3.42,5.12-5.46,8.61-5.46h2.71l-5.65,26.9Z"/><path class="cls-3" d="M363.1,27.84c-1.22-2.2-4.45-2.9-6.77-2.9a10.56,10.56,0,0,0-10.19,8.68c-1.33,6.32,1.5,9.5,6.56,9.5a12.88,12.88,0,0,0,7.66-2.59h.19l-.42,2c-.77,3.69-5.39,5.26-9.12,5.26-7.14,0-12.15-5.34-10.46-13.39,1.75-8.28,8.52-14.14,16.72-14.14,4.4,0,7.24,1.81,6.47,5.5l-.44,2.08Z"/><path class="cls-3" d="M374.45,47.83h-2.24c-5.19,0-7.24-2.35-6.39-6.44l4.36-20.73h2.75a2,2,0,0,1,2,2.59l-1.64,7.81a12.55,12.55,0,0,1,4.89-1c5.34,0,8.85,3.3,7.63,9.07C384.68,44.53,379.9,47.83,374.45,47.83Zm2.23-13.23a10.81,10.81,0,0,0-4.28.74l-1.21,5.74c-.26,1.26.55,2.08,2,2.08h1.73c2.9,0,4.73-1.22,5.41-4.44C380.88,36.09,379.74,34.6,376.68,34.6Z"/><path class="cls-3" d="M411.08,47.83h-2.4c-5.18,0-7.24-2.35-6.38-6.44l3.62-17.2a4.11,4.11,0,0,1,4.43-3.53h14.53l-.43,2.08A3.49,3.49,0,0,1,421,25.29H411l-1.26,6a13.48,13.48,0,0,1,5-.86c6,0,8.86,3.41,7.72,8.83S416.58,47.83,411.08,47.83Zm2.37-13.15a12.31,12.31,0,0,0-4.58.7l-1.32,6.25c-.07,1.1.94,1.69,2.4,1.69h1.76c2.87,0,4.76-1.34,5.43-4.52C417.7,36.17,416.52,34.68,413.45,34.68Z"/><path class="cls-3" d="M446.43,44.42c-.49,2.16-1.84,3.33-6.55,3.33H437c-6.56,0-9.25-3.61-7.81-10.48l1.05-5a63.27,63.27,0,0,1,2.11-7.58c1.1-3.22,2.77-4,5-4h14.06l-.38,1.8c-.4,1.89-1.73,2.83-4.21,2.83h-9.23a57.62,57.62,0,0,0-1.71,6.28h10.37l-.41,1.93C445.45,35.27,444.2,36,442,36h-7.11l-.33,1.57c-1,4.68.36,5.58,4.53,5.58h1.72a28.9,28.9,0,0,0,6-.59Z"/><path class="cls-3" d="M459.13,48.07c-4.24,0-8-1.93-7.28-5.54l.49-2.32h.23c1.33,2.08,3.93,3.19,7.35,3.19,2.94,0,5.35-1.18,5.84-3.5.55-2.63-.88-3.85-5.32-3.85-1.33,0-2.86,0-2.4-2.24l.36-1.69h3.18c4.6,0,5.93-1.68,6.35-3.65.48-2.32-.84-3.69-4.88-3.69A10.78,10.78,0,0,0,455.19,28H455l.48-2.28c.52-2.43,4.34-5.49,10.19-5.49,5.62,0,8.91,3,7.95,7.57-.72,3.46-3.26,5.27-6.15,6.09a4.83,4.83,0,0,1,3.93,5.62C470.22,44.81,466.08,48.07,459.13,48.07Z"/><path class="cls-3" d="M497.73,47.68h-2.9c-5,0-7-2.2-6.16-6.41l4.11-19.51a30.23,30.23,0,0,1,7.36-1.22h3.26c5.15,0,8.23,2.71,7.3,7.11a7.24,7.24,0,0,1-5.47,5.69,5.21,5.21,0,0,1,3.51,5.89C507.6,44.65,502.64,47.68,497.73,47.68Zm1.77-12.14h-4.28l-1.17,5.54c-.19.94.67,1.69,2,1.69h2.2c2.9,0,4.6-1.34,5-3.38C503.9,36.48,502.64,35.54,499.5,35.54ZM501.71,25h-2a17.89,17.89,0,0,0-2.38.27l-1.27,6.09h4.12c2.39,0,4.56-.94,5-3.26S503.72,25,501.71,25Z"/><path class="cls-3" d="M533.92,25.37H529L524.3,47.56h-2.16c-1.88,0-3-1.22-2.5-3.62l3.91-18.57h-7.74l.37-1.77a4,4,0,0,1,3.88-2.94h18.07l-.36,1.69A4.48,4.48,0,0,1,533.92,25.37Z"/><path class="cls-3" d="M549.55,38a8.5,8.5,0,0,1-4.32-.91L543,47.56h-2.12c-1.49,0-3-1-2.45-3.85l4.63-22a30.26,30.26,0,0,1,7.25-1.26h3c5.23,0,8.33,3,7.2,8.36A11.22,11.22,0,0,1,549.55,38Zm2.19-13H550a15,15,0,0,0-2.31.35L546.09,33a14.18,14.18,0,0,0,3.72.47,4.89,4.89,0,0,0,5.11-4.16C555.57,26.23,554.57,25,551.74,25Z"/><path class="cls-3" d="M581.4,47.56c-2.24,0-3.15-1.3-3.07-2.6a40.69,40.69,0,0,0,.15-4.27H567.76c-1,2.27-2,4.59-2.86,6.87h-2.08c-1.77,0-2.28-.94-1.93-2.6.82-3.88,9.17-19.71,14.26-24.3h2.2a3.81,3.81,0,0,1,3.84,2.47c1.52,4.36,3.13,15.94,2.41,24.43Zm-5.13-22a60.2,60.2,0,0,0-6.43,10.8h8.32A40.69,40.69,0,0,0,576.27,25.6Z"/><path class="cls-3" d="M609.31,25.37h-4.95l-4.67,22.19h-2.16c-1.88,0-3-1.22-2.5-3.62l3.91-18.57H591.2l.37-1.77a4,4,0,0,1,3.88-2.94h18.07l-.35,1.69A4.49,4.49,0,0,1,609.31,25.37Z"/><path class="cls-3" d="M643.31,44.42c-.49,2.16-1.84,3.33-6.55,3.33h-2.87c-6.56,0-9.25-3.61-7.81-10.48l1-5a65.23,65.23,0,0,1,2.1-7.58c1.11-3.22,2.78-4,5-4h14.06l-.38,1.8c-.4,1.89-1.73,2.83-4.21,2.83h-9.23a55.44,55.44,0,0,0-1.71,6.28h10.37l-.41,1.93c-.37,1.77-1.62,2.47-3.78,2.47h-7.11l-.33,1.57c-1,4.68.36,5.58,4.53,5.58h1.72a28.9,28.9,0,0,0,6-.59Z"/><path class="cls-3" d="M667.78,47.56c-1.57,0-2.87-1.26-2.38-3.62L667.07,36H656.19l-2.43,11.55h-2c-1.81,0-3-1.26-2.5-3.62l4.9-23.28h2.63a2.15,2.15,0,0,1,2.07,2.82l-1.68,8H668l2.28-10.84h2.43A2.25,2.25,0,0,1,675,23.48l-5.07,24.08Z"/><path class="cls-3" d="M696.6,44.42c-.5,2.16-1.84,3.33-6.56,3.33h-2.86c-6.56,0-9.26-3.61-7.81-10.48l1-5a63.27,63.27,0,0,1,2.11-7.58c1.11-3.22,2.77-4,5-4h14.06l-.38,1.8c-.39,1.89-1.73,2.83-4.2,2.83h-9.23A57.79,57.79,0,0,0,686,31.57h10.37L696,33.5c-.38,1.77-1.62,2.47-3.78,2.47H685.1l-.33,1.57c-1,4.68.36,5.58,4.52,5.58H691a28.81,28.81,0,0,0,6-.59Z"/><path class="cls-3" d="M713.65,38a8.54,8.54,0,0,1-4.33-.91l-2.2,10.45H705c-1.49,0-3-1-2.45-3.85l4.63-22a30.44,30.44,0,0,1,7.25-1.26h3c5.22,0,8.32,3,7.19,8.36A11.21,11.21,0,0,1,713.65,38Zm2.18-13H714.1a15,15,0,0,0-2.31.35L710.19,33a14,14,0,0,0,3.71.47A4.91,4.91,0,0,0,719,29.3C719.66,26.23,718.66,25,715.83,25Z"/><path class="cls-3" d="M744.54,25.37h-8.37l-4.66,22.19h-2.16c-1.57,0-2.88-1.26-2.38-3.62l4-19.24c.6-2.83,2.23-4,5.45-4h12L748,22.82A3.49,3.49,0,0,1,744.54,25.37Z"/><path class="cls-3" d="M751.53,47.56c-1.57,0-3-1.22-2.5-3.58l4.9-23.32h2.44a2.28,2.28,0,0,1,2.26,2.86l-5,24Z"/><path class="cls-3" d="M764.57,47.56c-1.57,0-3-1.22-2.51-3.58L767,20.66h2.43a2.28,2.28,0,0,1,2.27,2.86l-5.06,24Zm1.23-29.38a2.23,2.23,0,0,1-2.2-2.82A3.6,3.6,0,0,1,767,12.61a2.2,2.2,0,0,1,2.25,2.75A3.72,3.72,0,0,1,765.8,18.18Zm8.4,0A2.22,2.22,0,0,1,772,15.36a3.58,3.58,0,0,1,3.36-2.75,2.19,2.19,0,0,1,2.25,2.75A3.72,3.72,0,0,1,774.2,18.18Z"/><path class="cls-3" d="M13.8,229.45a3.08,3.08,0,0,1-2.34-1.14,51,51,0,0,1-4.71-7.87l-1.1,8.93H4.49a1.9,1.9,0,0,1-2-2.4L4.34,211.7H5.48a1.89,1.89,0,0,1,2.05,2.37l-.68,5.52a65.94,65.94,0,0,1,5.92-6.81,3.08,3.08,0,0,1,2.82-1.08H18l0,.12c-1.54,1.4-5.56,5.6-7.66,8.13,1.36,2.4,2.63,5.08,4.64,7a2.84,2.84,0,0,0,1.31.73A2.28,2.28,0,0,1,13.8,229.45Z"/><path class="cls-3" d="M31.06,229.37c-1.47,0-2.14-.85-2.16-1.7a25.86,25.86,0,0,0-.15-2.82h-7c-.55,1.5-1,3-1.48,4.52H18.86c-1.16,0-1.55-.62-1.42-1.7.31-2.56,4.89-13,8-16h1.45a2.77,2.77,0,0,1,2.66,1.62,51.83,51.83,0,0,1,3,16.05ZM26.43,215a35.09,35.09,0,0,0-3.6,7.09H28.3A28.23,28.23,0,0,0,26.43,215Z"/><path class="cls-3" d="M41.59,229.55H40c-3.41,0-4.9-1.55-4.57-4.23L36.84,214a2.43,2.43,0,0,1,2.71-2.32H49.1l-.17,1.36a2.06,2.06,0,0,1-2.14,1.68H40.23l-.48,3.95a8.37,8.37,0,0,1,3.24-.57c3.95,0,6,2.24,5.58,5.81S45.2,229.55,41.59,229.55Zm.8-8.64a7.82,7.82,0,0,0-3,.46l-.5,4.1c0,.73.71,1.11,1.67,1.11h1.16a3,3,0,0,0,3.3-3C45.26,221.89,44.4,220.91,42.39,220.91Z"/><path class="cls-3" d="M63.58,227.3c-.2,1.42-1,2.2-4.11,2.2H57.59c-4.31,0-6.29-2.38-5.74-6.89l.41-3.28a38.35,38.35,0,0,1,.94-5c.54-2.11,1.59-2.65,3-2.65h9.23l-.14,1.18c-.15,1.24-1,1.86-2.6,1.86H56.66a33.77,33.77,0,0,0-.76,4.13h6.81l-.16,1.26c-.14,1.16-.92,1.63-2.34,1.63H55.54l-.12,1c-.38,3.07.55,3.66,3.29,3.66h1.13a18.67,18.67,0,0,0,3.92-.38Z"/><path class="cls-3" d="M78.19,229.37a1.89,1.89,0,0,1-2-1.93,43.36,43.36,0,0,0-2.13-12.08,63.54,63.54,0,0,0-5.9,14H66.29A1.25,1.25,0,0,1,65,227.85a54.12,54.12,0,0,1,8.12-16.15h.72a3.15,3.15,0,0,1,2.93,1.41,43.87,43.87,0,0,1,3.34,16.26Z"/><path class="cls-3" d="M89.1,229.55H87.63c-3.41,0-4.89-1.55-4.56-4.23l1.67-13.62h1.8A1.44,1.44,0,0,1,88,213.4l-.63,5.13a7.9,7.9,0,0,1,3.15-.67c3.51,0,6,2.17,5.54,6C95.64,227.38,92.69,229.55,89.1,229.55Zm.71-8.7a6.69,6.69,0,0,0-2.77.49l-.47,3.77c-.1.83.48,1.37,1.44,1.37h1.13a2.92,2.92,0,0,0,3.3-2.92C92.65,221.84,91.82,220.85,89.81,220.85Z"/><path class="cls-3" d="M110.92,229.37a1.88,1.88,0,0,1-1.77-2.37l.64-5.22h-7.15l-.93,7.59h-1.34c-1.19,0-2-.83-1.85-2.37l1.88-15.3h1.72a1.56,1.56,0,0,1,1.53,1.85l-.65,5.27h7.15l.87-7.12h1.61a1.63,1.63,0,0,1,1.65,1.85l-1.94,15.82Z"/><path class="cls-3" d="M123.65,229.68c-4.47,0-7.64-3.59-7-8.88.68-5.49,4.25-9.41,9.62-9.41,4.28,0,7.67,3.27,7,8.87C132.61,225.63,129,229.68,123.65,229.68Zm1.91-15.17c-2.6,0-4.75,2.14-5.19,5.75-.53,4.26.76,6.35,4,6.35,2.73,0,4.73-2,5.21-5.86C130.08,216.6,128.55,214.51,125.56,214.51Z"/><path class="cls-3" d="M143.29,221.6a1.64,1.64,0,0,1-1.86,1.42H135.5l.16-1.31a1.67,1.67,0,0,1,1.78-1.47h6Z"/><path class="cls-3" d="M158.09,229.37a1.88,1.88,0,0,1-1.77-2.37l1.07-8.72c.38-3.07-.55-3.67-3.29-3.67h-.7a16.87,16.87,0,0,0-2.6.23L149,229.37h-1.42a1.88,1.88,0,0,1-1.77-2.37l1.8-14.68a24.52,24.52,0,0,1,5.69-.75h1.81c4.31,0,6.32,2.11,5.76,6.63l-1.37,11.17Z"/><path class="cls-3" d="M170.65,223.1a6,6,0,0,1-2.89-.59l-.85,6.86h-1.39c-1,0-2.06-.65-1.83-2.53l1.77-14.45a19.23,19.23,0,0,1,4.7-.82h2c3.44,0,5.65,2,5.21,5.49A6.61,6.61,0,0,1,170.65,223.1Zm.69-8.54H170.2a9.54,9.54,0,0,0-1.5.23l-.61,5a9.46,9.46,0,0,0,2.46.31,2.91,2.91,0,0,0,3.13-2.74C173.92,215.36,173.2,214.56,171.34,214.56Z"/><path class="cls-3" d="M185.86,229.68c-4.46,0-7.64-3.59-7-8.88.68-5.49,4.26-9.41,9.62-9.41,4.29,0,7.68,3.27,7,8.87C194.82,225.63,191.25,229.68,185.86,229.68Zm1.91-15.17c-2.6,0-4.75,2.14-5.19,5.75-.52,4.26.77,6.35,4,6.35,2.74,0,4.73-2,5.21-5.86C192.29,216.6,190.77,214.51,187.77,214.51Z"/><path class="cls-3" d="M204.43,229.45h-1.91c-3.3,0-4.75-1.45-4.41-4.21l1.58-12.82a19.28,19.28,0,0,1,4.77-.8h2.14c3.38,0,5.56,1.78,5.2,4.67a4.25,4.25,0,0,1-3.27,3.74,3.78,3.78,0,0,1,2.65,3.87C210.74,227.46,207.66,229.45,204.43,229.45Zm.47-8h-2.82l-.44,3.64c-.08.62.53,1.11,1.41,1.11h1.44c1.91,0,2.95-.88,3.12-2.22C207.84,222.09,207,221.47,204.9,221.47Zm.85-6.91h-1.32a11.19,11.19,0,0,0-1.55.18l-.49,4h2.71c1.58,0,2.94-.62,3.13-2.14S207.06,214.56,205.75,214.56Z"/><path class="cls-3" d="M216,229.37a1.9,1.9,0,0,1-1.85-2.35L216,211.7h1.6a1.65,1.65,0,0,1,1.65,1.88l-1.94,15.79Z"/><path class="cls-3" d="M230.3,211.67a3,3,0,0,1,3.13,1.75c1.72,3.9,2.38,8.6,2.72,13.37a12.74,12.74,0,0,1,1.89.39l-.8,6.55h-1.35c-1.65,0-2-.93-1.86-2.24l.22-1.78a37.19,37.19,0,0,0-4.4-.31h-2.27a42.56,42.56,0,0,0-4.3.31l-.2,1.59c-.18,1.48-1,2.43-2.2,2.43H219.3l.81-6.55a13.27,13.27,0,0,1,1.85-.39,76.31,76.31,0,0,1,2.93-7.43,34.92,34.92,0,0,1,4.68-7.69Zm.19,3.64c-1.61,2.4-3.66,7.58-4.72,11.12.81-.08,1.54-.11,2.13-.11h2.38a20.58,20.58,0,0,1,2.07.11A36,36,0,0,0,230.49,215.31Z"/><path class="cls-3" d="M252.88,229.37a1.88,1.88,0,0,1-1.77-2.37l.64-5.22H244.6l-.93,7.59h-1.34c-1.19,0-2-.83-1.85-2.37l1.88-15.3h1.73a1.56,1.56,0,0,1,1.53,1.85l-.65,5.27h7.15l.87-7.12h1.6a1.63,1.63,0,0,1,1.66,1.85l-1.95,15.82Z"/><path class="cls-3" d="M271.53,229.37a1.88,1.88,0,0,1-1.77-2.37l1.34-10.92a13.19,13.19,0,0,0-1.77,2.4l-4.22,6.66c-2.14,3.38-3.72,4.23-5.5,4.23h-1.44l2.17-17.67h1.73a1.55,1.55,0,0,1,1.52,1.85l-1.33,10.84a26.84,26.84,0,0,0,2-3l3.77-6.14c1.38-2.24,3.05-3.58,5.34-3.58h1.78L273,229.37Z"/><path class="cls-3" d="M288.44,229.45a3.06,3.06,0,0,1-2.33-1.14,50.26,50.26,0,0,1-4.71-7.87l-1.1,8.93h-1.16a1.91,1.91,0,0,1-2-2.4L279,211.7h1.13a1.89,1.89,0,0,1,2.06,2.37l-.68,5.52a64.76,64.76,0,0,1,5.92-6.81,3.07,3.07,0,0,1,2.82-1.08h2.42v.12A110.38,110.38,0,0,0,285,220c1.36,2.4,2.63,5.08,4.64,7a2.76,2.76,0,0,0,1.3.73A2.27,2.27,0,0,1,288.44,229.45Z"/><path class="cls-3" d="M300.49,229.68c-4.47,0-7.64-3.59-7-8.88.67-5.49,4.25-9.41,9.62-9.41,4.28,0,7.67,3.27,7,8.87C309.45,225.63,305.88,229.68,300.49,229.68Zm1.91-15.17c-2.61,0-4.75,2.14-5.2,5.75-.52,4.26.77,6.35,4,6.35,2.73,0,4.73-2,5.21-5.86C306.92,216.6,305.39,214.51,302.4,214.51Z"/><path class="cls-3" d="M319.06,229.45h-1.91c-3.3,0-4.75-1.45-4.41-4.21l1.57-12.82a19.36,19.36,0,0,1,4.77-.8h2.14c3.38,0,5.56,1.78,5.21,4.67a4.26,4.26,0,0,1-3.27,3.74,3.77,3.77,0,0,1,2.64,3.87C325.37,227.46,322.28,229.45,319.06,229.45Zm.46-8h-2.81l-.45,3.64c-.07.62.54,1.11,1.41,1.11h1.45c1.91,0,2.95-.88,3.11-2.22C322.46,222.09,321.59,221.47,319.52,221.47Zm.85-6.91h-1.31a11.19,11.19,0,0,0-1.55.18l-.49,4h2.71c1.57,0,2.94-.62,3.13-2.14S321.69,214.56,320.37,214.56Z"/><path class="cls-3" d="M341.05,229.37c-1.48,0-2.14-.85-2.17-1.7,0-1.16-.06-2.07-.14-2.82h-7.05c-.54,1.5-1,3-1.48,4.52h-1.37c-1.16,0-1.55-.62-1.42-1.7.32-2.56,4.9-13,8-16h1.44a2.79,2.79,0,0,1,2.67,1.62,51.57,51.57,0,0,1,3,16.05ZM336.42,215a35.11,35.11,0,0,0-3.61,7.09h5.47A28.68,28.68,0,0,0,336.42,215Z"/><path class="cls-3" d="M363.31,214.79h-3.25l-1.79,14.58h-1.42c-1.23,0-2-.8-1.85-2.37l1.5-12.21h-5.08l.14-1.16a2.35,2.35,0,0,1,2.38-1.93h11.87l-.13,1.1A2.63,2.63,0,0,1,363.31,214.79Z"/><path class="cls-3" d="M378.68,229.37c-1.47,0-2.14-.85-2.17-1.7a26.22,26.22,0,0,0-.14-2.82h-7.05c-.54,1.5-1,3-1.48,4.52h-1.37c-1.16,0-1.55-.62-1.41-1.7.31-2.56,4.89-13,8-16h1.45a2.79,2.79,0,0,1,2.66,1.62,51.57,51.57,0,0,1,3,16.05ZM374.05,215a35.11,35.11,0,0,0-3.61,7.09h5.47A28.24,28.24,0,0,0,374.05,215Z"/><path class="cls-3" d="M401.24,227.3c-.2,1.42-1,2.2-4.11,2.2h-1.89c-4.3,0-6.28-2.38-5.73-6.89l.4-3.28a40.07,40.07,0,0,1,.95-5c.54-2.11,1.59-2.65,3-2.65h9.23l-.14,1.18c-.16,1.24-1,1.86-2.6,1.86h-6.07a33.77,33.77,0,0,0-.76,4.13h6.81l-.16,1.26c-.14,1.16-.92,1.63-2.34,1.63H393.2l-.13,1c-.37,3.07.56,3.66,3.3,3.66h1.13a18.67,18.67,0,0,0,3.92-.38Z"/><path class="cls-3" d="M415.84,229.37a1.88,1.88,0,0,1-2-1.93,43.73,43.73,0,0,0-2.13-12.08,63.07,63.07,0,0,0-5.9,14H404a1.25,1.25,0,0,1-1.34-1.52,46.26,46.26,0,0,1,3.11-7.87,45.31,45.31,0,0,1,5-8.28h.72c1.11,0,2.46.38,2.92,1.41a43.67,43.67,0,0,1,3.35,16.26Z"/><path class="cls-3" d="M432.66,227.3c-.2,1.42-1,2.2-4.12,2.2h-1.88c-4.31,0-6.29-2.38-5.73-6.89l.4-3.28a40.07,40.07,0,0,1,.95-5c.54-2.11,1.59-2.65,3-2.65h9.24l-.15,1.18c-.15,1.24-1,1.86-2.6,1.86h-6.06a35.94,35.94,0,0,0-.77,4.13h6.82l-.16,1.26c-.14,1.16-.92,1.63-2.34,1.63h-4.67l-.13,1c-.37,3.07.56,3.66,3.29,3.66h1.14a18.67,18.67,0,0,0,3.92-.38Z"/><path class="cls-3" d="M446.81,229.45a3.06,3.06,0,0,1-2.33-1.14,50.26,50.26,0,0,1-4.71-7.87l-1.1,8.93h-1.16a1.91,1.91,0,0,1-2-2.4l1.88-15.27h1.13a1.9,1.9,0,0,1,2.06,2.37l-.68,5.52a64.76,64.76,0,0,1,5.92-6.81,3.07,3.07,0,0,1,2.82-1.08H451v.12a110.38,110.38,0,0,0-7.66,8.13c1.36,2.4,2.63,5.08,4.64,7a2.76,2.76,0,0,0,1.3.73A2.27,2.27,0,0,1,446.81,229.45Z"/><path class="cls-3" d="M463.55,214.79H460.3l-1.79,14.58h-1.42c-1.24,0-2-.8-1.85-2.37l1.5-12.21h-5.09l.14-1.16a2.35,2.35,0,0,1,2.38-1.93H466l-.13,1.1A2.62,2.62,0,0,1,463.55,214.79Z"/><path class="cls-3" d="M473.51,223.1a6,6,0,0,1-2.89-.59l-.84,6.86h-1.4c-1,0-2.06-.65-1.83-2.53l1.78-14.45a19.14,19.14,0,0,1,4.69-.82h2c3.43,0,5.64,2,5.21,5.49A6.62,6.62,0,0,1,473.51,223.1Zm.69-8.54h-1.13a9.36,9.36,0,0,0-1.5.23l-.62,5a9.48,9.48,0,0,0,2.47.31,2.91,2.91,0,0,0,3.12-2.74C476.79,215.36,476.06,214.56,474.2,214.56Z"/><path class="cls-3" d="M488.72,229.68c-4.46,0-7.63-3.59-7-8.88.67-5.49,4.25-9.41,9.62-9.41,4.28,0,7.67,3.27,7,8.87C497.68,225.63,494.12,229.68,488.72,229.68Zm1.92-15.17c-2.61,0-4.75,2.14-5.2,5.75-.52,4.26.77,6.35,4,6.35,2.73,0,4.73-2,5.2-5.86C495.15,216.6,493.63,214.51,490.64,214.51Z"/><path class="cls-3" d="M512.63,214.79h-3.25l-1.79,14.58h-1.42c-1.24,0-2-.8-1.85-2.37l1.5-12.21h-5.08l.14-1.16a2.34,2.34,0,0,1,2.38-1.93h11.87l-.14,1.1A2.61,2.61,0,0,1,512.63,214.79Z"/><path class="cls-3" d="M527.76,227.3c-.2,1.42-1,2.2-4.12,2.2h-1.88c-4.31,0-6.29-2.38-5.73-6.89l.4-3.28a40.07,40.07,0,0,1,1-5c.54-2.11,1.59-2.65,3-2.65h9.24l-.15,1.18c-.15,1.24-1,1.86-2.6,1.86h-6.06a35.94,35.94,0,0,0-.77,4.13h6.81l-.15,1.26c-.14,1.16-.92,1.63-2.34,1.63h-4.67l-.13,1c-.38,3.07.56,3.66,3.29,3.66H524a18.67,18.67,0,0,0,3.92-.38Z"/><path class="cls-3" d="M543.32,229.58c-1.63,0-2.71-.86-4.15-3.44l-1.82-3.25c-2.84,2.94-3.89,4.78-4.56,6.48h-1.73a1.19,1.19,0,0,1-1.28-1.37,4.93,4.93,0,0,1,.63-1.93,16.5,16.5,0,0,1,3.46-4.21l1.89-1.81L534,217.14c-1.56-2.63-2.31-4.26-2.48-5.44H534c.8,0,1.74.31,3.22,3l1.75,3.2c3.35-3.41,4.23-4.67,4.81-6.22h1.34c1.11,0,1.48.75,1.36,1.78-.16,1.26-2.4,3.79-5.9,7.28l1.93,3.43a16,16,0,0,0,3.49,4.31A3.2,3.2,0,0,1,543.32,229.58Z"/><path class="cls-3" d="M561.14,229.37a1.88,1.88,0,0,1-1.77-2.37l.64-5.22h-7.15l-.93,7.59h-1.34c-1.19,0-2-.83-1.85-2.37l1.88-15.3h1.72a1.56,1.56,0,0,1,1.53,1.85l-.65,5.27h7.15l.87-7.12h1.6a1.63,1.63,0,0,1,1.66,1.85l-1.94,15.82Z"/><path class="cls-3" d="M568.64,229.37a1.9,1.9,0,0,1-1.85-2.35l1.88-15.32h1.6a1.65,1.65,0,0,1,1.65,1.88L570,229.37Z"/><path class="cls-3" d="M585.51,229.37a1.88,1.88,0,0,1-1.77-2.37l.59-4.8a8,8,0,0,1-4,.8c-3.81-.06-5.75-2.15-5.3-5.81l.68-5.49h1.73a1.55,1.55,0,0,1,1.52,1.85l-.41,3.38c-.25,2,.57,2.89,2.89,2.89a7.16,7.16,0,0,0,3.23-.64l.92-7.48h1.7a1.57,1.57,0,0,1,1.57,1.75l-2,15.92Z"/><path class="cls-3" d="M603.49,229.37a1.88,1.88,0,0,1-1.77-2.37l.64-5.22h-7.15l-.93,7.59h-1.34c-1.19,0-2-.83-1.85-2.37L593,211.7h1.73a1.55,1.55,0,0,1,1.52,1.85l-.64,5.27h7.14l.88-7.12h1.6a1.63,1.63,0,0,1,1.65,1.85l-1.94,15.82Z"/><path class="cls-3" d="M621.44,229.37c-1.47,0-2.14-.85-2.16-1.7a25.86,25.86,0,0,0-.15-2.82h-7c-.55,1.5-1,3-1.48,4.52h-1.37c-1.16,0-1.55-.62-1.42-1.7.32-2.56,4.9-13,8-16h1.44a2.79,2.79,0,0,1,2.67,1.62,51.86,51.86,0,0,1,3,16.05ZM616.82,215a34.6,34.6,0,0,0-3.61,7.09h5.47A28.68,28.68,0,0,0,616.82,215Z"/><path class="cls-3" d="M644.14,229.37a1.88,1.88,0,0,1-1.77-2.37l1.07-8.72c.38-3.07-.56-3.67-3.29-3.67h-.7a17,17,0,0,0-2.61.23l-1.78,14.53h-1.42a1.88,1.88,0,0,1-1.77-2.37l1.8-14.68a24.52,24.52,0,0,1,5.69-.75h1.81c4.3,0,6.32,2.11,5.76,6.63l-1.37,11.17Z"/><path class="cls-3" d="M656.7,223.1a6,6,0,0,1-2.9-.59l-.84,6.86h-1.39c-1,0-2.07-.65-1.83-2.53l1.77-14.45a19.14,19.14,0,0,1,4.69-.82h2c3.43,0,5.64,2,5.21,5.49A6.61,6.61,0,0,1,656.7,223.1Zm.68-8.54h-1.13a9.36,9.36,0,0,0-1.5.23l-.61,5a9.4,9.4,0,0,0,2.46.31,2.9,2.9,0,0,0,3.12-2.74C660,215.36,659.24,214.56,657.38,214.56Z"/><path class="cls-3" d="M671.91,229.68c-4.47,0-7.64-3.59-7-8.88.68-5.49,4.25-9.41,9.62-9.41,4.28,0,7.67,3.27,7,8.87C680.87,225.63,677.3,229.68,671.91,229.68Zm1.91-15.17c-2.6,0-4.75,2.14-5.2,5.75-.52,4.26.77,6.35,4,6.35,2.73,0,4.73-2,5.21-5.86C678.34,216.6,676.81,214.51,673.82,214.51Z"/><path class="cls-3" d="M692.69,211.67a3,3,0,0,1,3.14,1.75c1.71,3.9,2.37,8.6,2.72,13.37a13.3,13.3,0,0,1,1.89.39l-.81,6.55h-1.34c-1.65,0-2-.93-1.87-2.24l.22-1.78a36.88,36.88,0,0,0-4.4-.31H690a42.35,42.35,0,0,0-4.29.31l-.2,1.59c-.18,1.48-1,2.43-2.21,2.43H681.7l.8-6.55a13.43,13.43,0,0,1,1.86-.39,76.22,76.22,0,0,1,2.92-7.43,34.92,34.92,0,0,1,4.69-7.69Zm.2,3.64a50.67,50.67,0,0,0-4.72,11.12c.81-.08,1.53-.11,2.13-.11h2.37a20.76,20.76,0,0,1,2.08.11A36.27,36.27,0,0,0,692.89,215.31Z"/><path class="cls-3" d="M717.86,214.4a51.45,51.45,0,0,1-5.19,8.91c-4.08,5.72-5,6.27-7.43,6.27a2,2,0,0,1-2.11-2.3l.07-.62,1.71-.08c1.27-.05,2.24-1.16,3-2.09a38.52,38.52,0,0,1-4.62-12.79h2a2,2,0,0,1,2.06,1.72,33.5,33.5,0,0,0,2.8,8.05,46.11,46.11,0,0,0,5.13-9.77H717c.95,0,1.47.41,1.36,1.31A5.4,5.4,0,0,1,717.86,214.4Z"/><path class="cls-3" d="M730.56,229.45a3.06,3.06,0,0,1-2.33-1.14,50.26,50.26,0,0,1-4.71-7.87l-1.1,8.93h-1.16a1.91,1.91,0,0,1-2-2.4l1.88-15.27h1.13a1.89,1.89,0,0,1,2.06,2.37l-.68,5.52a64.76,64.76,0,0,1,5.92-6.81,3.07,3.07,0,0,1,2.82-1.08h2.42v.12a110.38,110.38,0,0,0-7.66,8.13c1.36,2.4,2.63,5.08,4.64,7a2.76,2.76,0,0,0,1.3.73A2.27,2.27,0,0,1,730.56,229.45Z"/><path class="cls-3" d="M750.21,233.73c-1.63,0-2.24-.9-2.08-2.19l.27-2.17H742c-4.52,0-6.49-2.45-5.89-7.3l1.27-10.37H739a1.52,1.52,0,0,1,1.58,1.7l-1.12,9.11c-.35,2.81.52,3.76,3.53,3.76h2.89l1.8-14.57h1.65a1.59,1.59,0,0,1,1.61,1.75l-1.57,12.82c1.49,0,2.65.24,2.42,2.12l-.65,5.34Z"/><path class="cls-3" d="M756.36,229.37a1.9,1.9,0,0,1-1.85-2.35l1.88-15.32H758a1.64,1.64,0,0,1,1.65,1.88l-1.94,15.79Z"/><path class="cls-3" d="M773.26,229.37a1.89,1.89,0,0,1-2.08-2.37l.56-4.57c-.47.08-1.21.15-1.94.23-1.12.1-1.77.36-2.9,2.4l-1.59,2.84a3.24,3.24,0,0,1-2.95,1.57,5.87,5.87,0,0,1-1.82-.28v-.13a11.14,11.14,0,0,0,1.22-1.73l1.81-3.2a4.72,4.72,0,0,1,2.78-2.63c-2-.34-3.45-2.19-3.13-4.8.39-3.12,3.06-5.18,6.73-5.18h1.75a16,16,0,0,1,4.75.8l-2.09,17.05Zm-.57-14.66a9,9,0,0,0-1.63-.2H769.9a2.83,2.83,0,0,0-3.11,2.66,2.39,2.39,0,0,0,2.61,2.68,21.78,21.78,0,0,0,2.68-.16Z"/><path class="cls-2" d="M282.64,158q-25.09,25.77-56,25.76-19.46,0-34.94-13.47-12.43-10.64-12.43-30,0-24.81,23.45-44.19t54.65-19.39q18,0,29.31,11.7t11.26,30.14Q297.89,142.39,282.64,158ZM245.12,91.56q-15.24,0-27.44,14.94a72.61,72.61,0,0,0-13.6,28.69,52.09,52.09,0,0,0-1.17,10.43q0,11.15,7.5,17.42a27.53,27.53,0,0,0,18.29,6.29q18.06,0,30.26-14,13.37-15.18,14.77-30.35.47-5.92.47-9.48,0-12.09-9.38-18.73Q256.62,91.56,245.12,91.56Z"/><path class="cls-2" d="M339.7,130.28q6,7.8,18.55,22Q370.76,164.8,381,164.79h2.32q3.24,0,12.28-4.49v7.33q0,5.19-9.28,10.75t-15.77,5.56q-3.48,0-12.52-5.68-7.42-4.24-18.32-18.2-6-8-20.42-25.54l-11.57,44.92H288.24L314,81.59h19l-12.44,48.23A281.19,281.19,0,0,0,365.91,95.3a161.19,161.19,0,0,0,16-17.73l16.91,11.11Q379.34,111.38,339.7,130.28Z"/><path class="cls-2" d="M502.82,159.25Q477.61,185,446.51,185q-19.56,0-35.1-13.48-12.5-10.64-12.49-30,0-24.82,23.56-44.2T477.38,78q18.14,0,29.45,11.7t11.31,30.13Q518.14,143.66,502.82,159.25ZM465.13,92.84q-15.31,0-27.57,14.93a72.45,72.45,0,0,0-13.66,28.69,51.5,51.5,0,0,0-1.18,10.43q0,11.15,7.54,17.43t18.37,6.28q18.15,0,30.4-14,13.43-15.17,14.84-30.34c.31-4,.47-7.12.47-9.49q0-12.07-9.42-18.73Q476.67,92.85,465.13,92.84Z"/><path class="cls-2" d="M651.64,172.32q-12.46,8.06-31,11.84a19.18,19.18,0,0,1-4.47.71q-9.87,0-15.52-7.11t-5.64-18a68.4,68.4,0,0,1,3.76-20.85q2.12-6.63,9.64-23.94H602q-8,19.68-16.45,37-13.17,25.83-27.28,30.56a46.91,46.91,0,0,1-14.57,2.37q-7.29,0-10.35-1.18-11.05-4-11-15.64a23.6,23.6,0,0,1,2.35-10.19h19.05a15.82,15.82,0,0,0-.24,2.61q0,8.52,7.29,8.53,1.63,0,6.11-3.08c1.25-.95,2.82-2,4.7-3.32q9.64-7.33,27.75-38.62Q597.1,110.24,611.67,82h21.16l-2.35,9a72.08,72.08,0,0,1-3.76,10.43,4.35,4.35,0,0,1,.23,2.37q-2.82,12.07-9.16,36-3.06,10.67-3.06,17.54,0,10.19,9.87,15.16H627q7.53,0,20.46-7.34a34.84,34.84,0,0,1,6.82-3.79,3.66,3.66,0,0,1,1.64.47v1Q655.87,169.71,651.64,172.32Z"/><path class="cls-2" d="M172.72,116c0-1.88.06-3.77.19-5.65.22,1.71,2.88,4.67,4.44,5-1.18-.22-3.66-9.4-3.8-10.7-.81-7.1-2-12.83-5.52-19.19a12,12,0,0,1-1.17-1.83,2.82,2.82,0,0,1,1.37.5c.48.22,1.07.29,1.52.45-1.27-1-1.31-3.17-1.86-4.58a50.64,50.64,0,0,0-2.26-5.86c-.18-.33-.36-.65-.51-.95-4.06-7.8-9.34-13.17-15.69-16a21.43,21.43,0,0,1-2.18-1.2c-.64-.4-1.35-.82-2.11-1.2.31-.17.62-.34.92-.52,3.11-1.78,5.83-3.75,8.85-5.43-3.44.23-6.92.87-10.22,1.14-.8.06-1.59.1-2.36.12a6.23,6.23,0,0,1-1.38.24,78,78,0,0,1-9.66.27c-.76-.15-1.51-.26-2.24-.36-.52-.07-1.05-.14-1.55-.23-.73-.13-1.48-.31-2.2-.48a21.69,21.69,0,0,0-5.21-.77H120a15.39,15.39,0,0,1-2.32-.26,18,18,0,0,0-3.25-.32,47.38,47.38,0,0,0-8.68.88,48.29,48.29,0,0,0-7.66,2.47l-2,.75A22.08,22.08,0,0,0,85.6,61.66a16.77,16.77,0,0,0-.89,2.56,13.58,13.58,0,0,0-.34,1.56c-2.66.94-7.51,2.91-9.52,5.41-3.49,4.34-5,8.48-5.06,13.44A14.82,14.82,0,0,0,77.62,98L84,101.35,80.69,95c-.73-1.44-1.06-4.3-.59-5.11.27-.46.43-.46.64-.46a8,8,0,0,1,2.2.61l.33.13a12.4,12.4,0,0,0,2.77.62,4.32,4.32,0,0,1,2.25.69,6.81,6.81,0,0,1,1.43,2.3,11.6,11.6,0,0,0,1.9,3.15,18.11,18.11,0,0,0,2.27,2,15.94,15.94,0,0,1,2.2,2l.67.78c.33.39.68.79,1,1.18a3,3,0,0,0,.64,1.76,9.88,9.88,0,0,0,1.48,1.45,3,3,0,0,1,1,1.21c.74,1.84.46,4.53.52,6.48a14.88,14.88,0,0,1-1.13,7.2,13.25,13.25,0,0,1-12,7.1c2.75.22,5.09,1.54,8,1.53a12,12,0,0,0,8-2.71c-.84.66.52,4.75.43,5.85a11.08,11.08,0,0,1-3,6.63,13.92,13.92,0,0,1-4.29,3.42,24.74,24.74,0,0,1-4.51.42,30.43,30.43,0,0,1-4-.26,42.79,42.79,0,0,1-7-2.55c-17.95-8.3-28.32-26.06-27.33-43.79a52.5,52.5,0,0,0,30.22,52.64,37.13,37.13,0,0,0,8,2.33c5,1,10.31-.15,14.87-2.26a7.29,7.29,0,0,0,2.59-1.52,15.54,15.54,0,0,1-5.82,4.83,26.38,26.38,0,0,1-9.17,1.6c1.19-.05,2.73.66,4,.82a24.09,24.09,0,0,0,4.8.2,28.72,28.72,0,0,0,8-1.87c10.17-3.67,16.86-9.82,24.15-17.64,2.86-3.07,7.11-8.4,8.62-12.38C141.82,131,142,139,137,145.91c-10.81,14.21-27.37,23.3-45.94,23.3-32.58,0-59-28-59-62.49C32,79.89,48,57,70.37,48.15A71.16,71.16,0,1,0,163.9,128.3s0,.08,0,.12c1,8.5,1.05,17.18-2.83,25.08,1.88-3.83,5.49-7.15,7-11.07a72.06,72.06,0,0,0,4.17-16.11A80.81,80.81,0,0,0,172.72,116ZM97.36,84.36A24.57,24.57,0,0,0,93,83.29a13,13,0,0,0-2.23-.7,7.78,7.78,0,0,0-2.64.11c-1.54.46-2.56,1.52-4.42,1.37-1.48-.12-1.7-1.72-3.12-2-2.61-.55-4.22,2-4.68,4.16a19.45,19.45,0,0,1,1.33-9.61,10.72,10.72,0,0,1,3.9-4.54,36.44,36.44,0,0,1,6.4-2.58L89,69c.61-.21,1.35-.25,1.72-.87a4.83,4.83,0,0,0,.22-.64c.07-.17.17-.35.25-.52s.11-.24.16-.36a3.17,3.17,0,0,0,.28-.62,6.21,6.21,0,0,1,1.27-2.9c.09,1.18-.71,2.23-.39,3.5a3.2,3.2,0,0,0,.59,1.12c1.25,1.65,4,3.23,5.32,4.14s1.38,1.06,3,.58c.86-.26,2.28-1,3.2-.89s.55.3.78,1.18a6.84,6.84,0,0,0,.64,1.5,7.11,7.11,0,0,0,2,2.36,7.4,7.4,0,0,0,7.09,1c2.49-.83,4.5-2.09,4.61-5,0-.64-.31-2.24,0-2.79.6-1.06,1.5.35,1.82,1a7.31,7.31,0,0,1-.29,6.12,8.59,8.59,0,0,1-5.74,3.67,20.75,20.75,0,0,1-6.81-.14,23.26,23.26,0,0,1-4.45-1.06c-1.11-.37-3-.56-3.84-1.48,1.83,2.34,5.69,3.49,8.38,4.4a22,22,0,0,0,4.47.83c.8.09.67,0,1.11.54a7.82,7.82,0,0,1,1.26,1.82c-2.25-.87-6.35-.51-8.74-.19-.93.13-1.81.1-2.73.19-.75.08-1.2.44-1.94.55C100.5,86.29,98.83,85,97.36,84.36ZM116.75,72.8c-.7.17-1.6,1.1-2.29.5a2.28,2.28,0,0,1-.06-2.64,1.52,1.52,0,0,1,2.72,1c.08-.5,0-3,1-2,.47.47.37,1.68.41,2.29a3.71,3.71,0,0,1-1.78,3.42A6.77,6.77,0,0,1,111,76a5.26,5.26,0,0,1-3.51-4.16,6,6,0,0,1-.07-.61,11.2,11.2,0,0,0,2.37,3.2,5,5,0,0,0,4.11.82C114.76,75.06,117,73.92,116.75,72.8Zm49.95,39.85c-.29,3,0,6.17-.23,9.2a42,42,0,0,0-5.1-7.87,46.94,46.94,0,0,1-7,25.52,38.88,38.88,0,0,1-8,9.59c-1.76,1.52-3.13,3.47-4.92,5-1.51,1.29-3.8,2.1-5.15,3.45a39.33,39.33,0,0,0,9.52-16.87,43.81,43.81,0,0,0,1.6-12.88,68,68,0,0,0-.49-8.09c-.28-2.13-1.6-6.16-.86-8.21-1.13,3.12-2.38,6.8-4.5,9.86-.92,1.32-1.85,2.64-2.88,4s-2.83,2.68-3.51,4.13c1.1-2,1.2-4.64,1.21-6.87,0-3-1.37-5.95-1.22-9-1,2.48-1.09,5.47-1.61,8a28.05,28.05,0,0,1-2.49,7.22c-3.61,7.15-7.59,13.81-14.33,18.49,2.13-3.41,2.74-7.75,3.81-11.58.88-3.14,1.07-7.76-.45-10.8.29.57-1.9,5.08-2.18,5.89-.68,2-1.58,3.94-2.25,5.91a11.33,11.33,0,0,1-4.84,5.69,13.17,13.17,0,0,1-4,1.55c-.88.19-2.72-.09-3.43.29,5.86-3.11,6.59-12.55,6.3-18.19-.19-3.78-.69-9.12,1.42-12.41-2.46,2.35-3.56,5.24-6.51,7,0-2.53,1.88-4.71,2.06-7.28a70.81,70.81,0,0,0-.43-10.49,15.18,15.18,0,0,0-1.64-5.35c-.62-1.1-1.43-3.24-2.52-3.89,1.69.11,3.28,1.2,4.77,1.87,2.81,1.28,5.44,3.36,6.49,6.39a15.26,15.26,0,0,1,.62,5.26,17,17,0,0,1,.78-2.67,17,17,0,0,0,.41-2.44c.19-1.92.25-4-1.26-5.41.39.37,2,.34,2.53.48a5.48,5.48,0,0,1,2.27,1.11,21,21,0,0,1,4.1,3.89,22.86,22.86,0,0,1,2.45,5.2c-.13-2.55.75-5,.85-7.57a11,11,0,0,0-1.56-6.57c3,1.6,10.17,2.36,13.08.49a12.41,12.41,0,0,1-7.38-4.25c-1.81-2-2.57-5.06-4.78-6.56a13,13,0,0,0-4.34-1.63c.31-1.06,3.67-5.59,3.41-6.25a5.85,5.85,0,0,1-.17,3.06c1.22-.54,2.37-2.63,2.78-3.84s.33-3.37.95-4.36c.73-1.18,3.78-1.61,5.09-1.71,1.91-.14,4.26-.17,6-1-2.62,0-5.24,0-7.82-.14a50.19,50.19,0,0,1-5.83-.7c-2-.31-3.91-.35-5.88-.55l-.16,0c-1.5-.24-2-1-3.6-.41a14.34,14.34,0,0,1-3.67.75,10.82,10.82,0,0,1-1.85-.32,5.6,5.6,0,0,0-3.09.45,19.12,19.12,0,0,1-4,1.32c-1.25.21-3.5.7-4.6-.09a11,11,0,0,1-2.12-3c-1.48-2.62,1.59-4.38,3.33-5.81a16.5,16.5,0,0,1,5.5-3c1-.3,2.92-.33,3.65-.83-2.29-.15-4.63,0-6.94,0a32.28,32.28,0,0,1,4.55-1.35,41.85,41.85,0,0,1,7.84-.79h.11a26.3,26.3,0,0,1,3.66,0c2.43.32,4.84.93,7.29,1.23a37.34,37.34,0,0,0,4.61.34c1.16,0,2.32,0,3.48,0l2.75-.07a9.7,9.7,0,0,1,1.69-.13c-.79.2-1.6.64-2.41.9s-1.72.44-2.51.75c1.87.61,3.91.92,5.82,1.51.73.22,1.53.53,2.31.82l1,.36a16,16,0,0,1,2.63,1.39,22,22,0,0,0,2.7,1.47c5.39,2.38,9.93,7.07,13.51,13.93l.56,1,.07.14q-.39-.16-.81-.3l-8.48-3-.05,0-.8-.28,7,7c3.92,3.9,5.86,9.87,6.88,15.28A62.36,62.36,0,0,1,166.7,112.65Z"/><path class="cls-2" d="M90.72,73.91c-.79-.52-1.92-1.27-2.86-.65-1.21.8.47,1.38,1.18,1.62a10.36,10.36,0,0,0,4,.69C92.66,74.81,91.42,74.39,90.72,73.91Z"/><path class="cls-2" d="M93.08,0C48.4,0,0,35.08,0,94.21s55.77,92.25,90.26,92.25L51,162S21.12,117.92,21.12,89.66,42.88,7.47,104.6,7.47c0,0,37.85-.32,58.47,24C163.07,31.51,139.38,0,93.08,0Z"/></g></g></svg>